<svg width="40" height="40" viewBox="0 0 40 40" fill="none" xmlns="http://www.w3.org/2000/svg">
<g id="contact">
<path id="Vector" d="M28.0005 9H14.5005C13.5738 9.00525 12.6867 9.37568 12.0314 10.0309C11.3762 10.6862 11.0057 11.5734 11.0005 12.5V27.5C10.9928 27.9622 11.0772 28.4214 11.2489 28.8506C11.4206 29.2799 11.6761 29.6706 12.0005 30C12.325 30.3226 12.7106 30.5772 13.1347 30.7489C13.5588 30.9206 14.013 31.006 14.4705 31H28.0005C28.2657 31 28.5201 30.8946 28.7076 30.7071C28.8951 30.5196 29.0005 30.2652 29.0005 30V10C29.0005 9.73478 28.8951 9.48043 28.7076 9.29289C28.5201 9.10536 28.2657 9 28.0005 9ZM13.4405 11.44C13.7215 11.1586 14.1028 11.0003 14.5005 11H27.0005V24H14.5005C13.9806 24.0032 13.4681 24.1228 13.0005 24.35V12.5C13.0008 12.1023 13.1591 11.721 13.4405 11.44ZM14.5005 29C14.1028 28.9996 13.7215 28.8414 13.4405 28.56C13.1609 28.2777 13.003 27.8973 13.0005 27.5C13.0005 27.1022 13.1585 26.7206 13.4398 26.4393C13.7211 26.158 14.1027 26 14.5005 26H27.0005V29H14.5005Z" fill="#333333"/>
<path id="Vector_2" d="M16.4491 22.3691H16.4991C16.7087 22.3687 16.9112 22.2926 17.0692 22.1548C17.2272 22.017 17.3301 21.8268 17.3591 21.6191C17.3591 21.5591 17.3591 21.4991 17.3591 21.4491C17.3537 21.4026 17.3537 21.3557 17.3591 21.3091C17.4019 21.0433 17.5383 20.8016 17.7437 20.6274C17.949 20.4532 18.2098 20.3581 18.4791 20.3591H21.4791C21.6405 20.3591 21.8 20.3939 21.9467 20.4612C22.0934 20.5285 22.2238 20.6267 22.3291 20.7491C22.5174 20.9566 22.6178 21.2291 22.6091 21.5091C22.6113 21.6484 22.6456 21.7852 22.7091 21.9091C22.8068 22.0722 22.949 22.204 23.1191 22.2891C23.2971 22.359 23.4914 22.3764 23.6791 22.3391C23.8705 22.2963 24.0419 22.19 24.1653 22.0375C24.2887 21.885 24.357 21.6953 24.3591 21.4991C24.3523 21.3184 24.3356 21.1381 24.3091 20.9591C24.1997 20.3676 23.9073 19.8254 23.473 19.4091C23.0388 18.9928 22.4847 18.7234 21.8891 18.6391C21.9991 18.5391 22.0991 18.4291 22.1991 18.3191C22.5417 17.899 22.7587 17.3908 22.8253 16.8528C22.8919 16.3148 22.8054 15.769 22.5755 15.278C22.3457 14.7871 21.982 14.3709 21.5262 14.0775C21.0705 13.784 20.5411 13.6251 19.9991 13.6191H19.9391C19.3652 13.6336 18.8089 13.8199 18.342 14.1538C17.8751 14.4877 17.5191 14.954 17.3199 15.4923C17.1207 16.0307 17.0875 16.6164 17.2247 17.1738C17.3618 17.7312 17.6629 18.2346 18.0891 18.6191C17.4098 18.7262 16.7909 19.072 16.3437 19.5944C15.8965 20.1167 15.6502 20.7815 15.6491 21.4691C15.6406 21.6934 15.7191 21.9122 15.8682 22.0799C16.0173 22.2476 16.2254 22.3512 16.4491 22.3691ZM18.8691 16.4991C18.8775 16.1991 18.9989 15.9134 19.2091 15.6991C19.3116 15.5971 19.4333 15.5164 19.5672 15.4614C19.701 15.4065 19.8444 15.3786 19.9891 15.3791C20.2888 15.3791 20.5762 15.4982 20.7881 15.7101C21 15.922 21.1191 16.2094 21.1191 16.5091C21.1101 16.8061 20.9886 17.0885 20.7791 17.2991C20.5548 17.4987 20.2689 17.6152 19.9691 17.6291C19.6762 17.6164 19.3993 17.4924 19.1949 17.2824C18.9904 17.0724 18.8739 16.7922 18.8691 16.4991Z" fill="#333333"/>
</g>
</svg>
