<svg width="20" height="20" viewBox="0 0 20 20" fill="none" xmlns="http://www.w3.org/2000/svg">
<g id="ico">
<path id="Vector" d="M12.2658 8.8902L9.25 11.9152L8.0675 10.7235C7.89489 10.5509 7.66078 10.454 7.41667 10.454C7.17256 10.454 6.93844 10.5509 6.76583 10.7235C6.59322 10.8961 6.49625 11.1303 6.49625 11.3744C6.49625 11.6185 6.59322 11.8526 6.76583 12.0252L8.59917 13.8585C8.68438 13.9445 8.78577 14.0126 8.89747 14.0592C9.00918 14.1057 9.12899 14.1297 9.25 14.1297C9.37101 14.1297 9.49082 14.1057 9.60253 14.0592C9.71423 14.0126 9.81562 13.9445 9.90083 13.8585L13.5675 10.1919C13.7401 10.0193 13.8371 9.78515 13.8371 9.54104C13.8371 9.29693 13.7401 9.06281 13.5675 8.8902C13.3949 8.71759 13.1608 8.62062 12.9167 8.62062C12.6726 8.62062 12.4384 8.71759 12.2658 8.8902ZM16.5833 4.04104H10.8267L10.5333 3.12437C10.3432 2.5865 9.99043 2.12108 9.52399 1.7926C9.05755 1.46412 8.50049 1.28884 7.93 1.29104H3.75C3.02065 1.29104 2.32118 1.58077 1.80546 2.09649C1.28973 2.61222 1 3.31169 1 4.04104V15.9577C1 16.687 1.28973 17.3865 1.80546 17.9022C2.32118 18.418 3.02065 18.7077 3.75 18.7077H16.5833C17.3127 18.7077 18.0122 18.418 18.5279 17.9022C19.0436 17.3865 19.3333 16.687 19.3333 15.9577V6.79104C19.3333 6.06169 19.0436 5.36222 18.5279 4.84649C18.0122 4.33077 17.3127 4.04104 16.5833 4.04104ZM17.5 15.9577C17.5 16.2008 17.4034 16.434 17.2315 16.6059C17.0596 16.7778 16.8264 16.8744 16.5833 16.8744H3.75C3.50688 16.8744 3.27373 16.7778 3.10182 16.6059C2.92991 16.434 2.83333 16.2008 2.83333 15.9577V4.04104C2.83333 3.79792 2.92991 3.56476 3.10182 3.39285C3.27373 3.22095 3.50688 3.12437 3.75 3.12437H7.93C8.12217 3.12387 8.30964 3.18379 8.46591 3.29564C8.62218 3.4075 8.73934 3.56563 8.80083 3.7477L9.29583 5.25104C9.35733 5.43311 9.47449 5.59124 9.63076 5.7031C9.78702 5.81495 9.97449 5.87487 10.1667 5.87437H16.5833C16.8264 5.87437 17.0596 5.97095 17.2315 6.14285C17.4034 6.31476 17.5 6.54792 17.5 6.79104V15.9577Z" fill="#333333"/>
</g>
</svg>
