<svg width="24" height="24" viewBox="0 0 24 24" fill="none" xmlns="http://www.w3.org/2000/svg">
<g id="Group 941">
<rect id="Rectangle 2135" width="24" height="24" rx="12" fill="#E788A0"/>
<g id="Group 427319115">
<path id="Vector" d="M7.00278 11.9994C7.00278 11.2519 6.99652 10.5036 7.00278 9.75613C7.00735 9.16282 7.20218 8.58663 7.55862 8.11232C7.91505 7.63801 8.41427 7.29061 8.98285 7.12122C9.24932 7.04117 9.52612 7.00073 9.80436 7.00122C11.2652 6.99959 12.7259 6.99959 14.1867 7.00122C15.5752 7.0047 16.6934 7.93448 16.9518 9.29698C16.9838 9.46834 16.9997 9.64233 16.9991 9.81666C16.9991 11.2713 17.0012 12.7264 16.9991 14.1814C16.9956 15.5707 16.0698 16.6879 14.7074 16.9502C14.5366 16.9828 14.3631 16.9991 14.1892 16.9989C12.7343 16.9989 11.2794 17.0014 9.82489 16.9989C8.43853 16.9958 7.33007 16.0844 7.05669 14.7279C7.01877 14.5395 6.99989 14.3478 7.00035 14.1557C7.00267 13.437 7.00348 12.7182 7.00278 11.9994ZM14.7937 11.9994C14.794 11.4469 14.6305 10.9067 14.3239 10.4472C14.0172 9.98761 13.5812 9.62933 13.0709 9.41764C12.5607 9.20594 11.9991 9.15034 11.4572 9.25786C10.9154 9.36538 10.4175 9.6312 10.0268 10.0217C9.63596 10.4122 9.36974 10.9098 9.26175 11.4516C9.15377 11.9935 9.20888 12.5552 9.42011 13.0657C9.63134 13.5762 9.9892 14.0125 10.4484 14.3196C10.9077 14.6267 11.4476 14.7907 12.0001 14.7908C12.3672 14.7922 12.7309 14.721 13.0704 14.5812C13.4098 14.4414 13.7182 14.2358 13.9779 13.9763C14.2375 13.7167 14.4432 13.4084 14.5832 13.069C14.7231 12.7296 14.7945 12.3658 14.7933 11.9987L14.7937 11.9994ZM15.9066 8.89279C15.9057 8.73434 15.8579 8.5797 15.7693 8.44832C15.6808 8.31694 15.5553 8.21466 15.4088 8.15435C15.2623 8.09403 15.1013 8.07836 14.9459 8.10931C14.7905 8.14026 14.6477 8.21645 14.5355 8.3283C14.4233 8.44015 14.3466 8.58268 14.3151 8.73797C14.2836 8.89327 14.2987 9.0544 14.3585 9.20113C14.4184 9.34787 14.5202 9.47365 14.6513 9.56268C14.7823 9.65171 14.9368 9.70001 15.0952 9.70152C15.202 9.70336 15.308 9.68368 15.407 9.64364C15.506 9.60361 15.596 9.54405 15.6715 9.46852C15.747 9.39298 15.8065 9.30301 15.8465 9.20398C15.8864 9.10495 15.9061 8.99888 15.9042 8.89209L15.9066 8.89279Z" fill="white"/>
<path id="Vector_2" d="M11.9966 10.6055C12.7565 10.6027 13.3951 11.242 13.3916 12.0017C13.387 12.3686 13.2392 12.7191 12.9797 12.9785C12.7203 13.2379 12.3697 13.3855 12.0028 13.39C11.2436 13.3927 10.604 12.7527 10.6074 11.9937C10.6121 11.6268 10.76 11.2763 11.0196 11.0169C11.2791 10.7575 11.6297 10.6099 11.9966 10.6055Z" fill="white"/>
</g>
</g>
</svg>
