<svg width="24" height="24" viewBox="0 0 24 24" fill="none" xmlns="http://www.w3.org/2000/svg">
<g id="social">
<rect id="Rectangle 2133" width="24" height="24" rx="12" fill="#74C182"/>
<path id="Vector" d="M16.3902 7.60417C15.3554 6.57292 13.9756 6 12.5192 6C9.49129 6 7.03833 8.44444 7.03833 11.4618C7.03833 12.4167 7.30662 13.3715 7.76655 14.1736L7 17L9.91289 16.2361C10.7178 16.6562 11.5993 16.8854 12.5192 16.8854C15.547 16.8854 18 14.441 18 11.4236C17.9617 10.0104 17.4251 8.63542 16.3902 7.60417ZM15.1638 13.4097C15.0488 13.7153 14.5122 14.0208 14.2439 14.059C14.0139 14.0972 13.7073 14.0972 13.4007 14.0208C13.2091 13.9444 12.9408 13.8681 12.6341 13.7153C11.2544 13.1424 10.3728 11.7674 10.2962 11.6528C10.2195 11.5764 9.72126 10.9271 9.72126 10.2396C9.72126 9.55208 10.0662 9.24653 10.1812 9.09375C10.2962 8.94097 10.4495 8.94097 10.5645 8.94097C10.6411 8.94097 10.7561 8.94097 10.8328 8.94097C10.9094 8.94097 11.0244 8.90278 11.1394 9.17014C11.2544 9.4375 11.5226 10.125 11.561 10.1632C11.5993 10.2396 11.5993 10.316 11.561 10.3924C11.5226 10.4688 11.4843 10.5451 11.4077 10.6215C11.331 10.6979 11.2544 10.8125 11.216 10.8507C11.1394 10.9271 11.0627 11.0035 11.1394 11.1181C11.216 11.2708 11.4843 11.691 11.9059 12.0729C12.4425 12.5312 12.8641 12.684 13.0174 12.7604C13.1707 12.8368 13.2474 12.7986 13.324 12.7222C13.4007 12.6458 13.669 12.3403 13.7456 12.1875C13.8223 12.0347 13.9373 12.0729 14.0523 12.1111C14.1672 12.1493 14.8571 12.4931 14.9721 12.5694C15.1254 12.6458 15.2021 12.684 15.2404 12.7222C15.2787 12.8368 15.2787 13.1042 15.1638 13.4097Z" fill="white"/>
</g>
</svg>
