<svg width="24" height="24" viewBox="0 0 24 24" fill="none" xmlns="http://www.w3.org/2000/svg">
<g id="social">
<rect id="Rectangle 2133" width="24" height="24" rx="12" fill="#6DA0DC"/>
<path id="Vector" d="M12.4466 16C9.02998 16 7.0812 13.3724 7 9H8.71143C8.76765 12.2092 10.0294 13.5686 11.0287 13.8488V9H12.6402V11.7678C13.6271 11.6486 14.664 10.3874 15.0137 9H16.6252C16.4934 9.71954 16.2307 10.4008 15.8535 11.0013C15.4762 11.6017 14.9926 12.1083 14.4329 12.4895C15.0577 12.8378 15.6095 13.3307 16.052 13.9359C16.4946 14.541 16.8177 15.2445 17 16H15.2261C15.0624 15.3438 14.7297 14.7564 14.2697 14.3114C13.8097 13.8664 13.2429 13.5836 12.6402 13.4985V16H12.4466Z" fill="white"/>
</g>
</svg>
