<svg width="24" height="24" viewBox="0 0 24 24" fill="none" xmlns="http://www.w3.org/2000/svg">
<g id="social">
<rect id="Rectangle 2211" width="24" height="24" rx="12" fill="#6DA0DC"/>
<path id="Vector" fill-rule="evenodd" clip-rule="evenodd" d="M6 11.8195C6 8.47628 8.6205 6 12 6C15.3795 6 18 8.47778 18 11.821C18 15.1642 15.3795 17.6405 12 17.6405C11.3925 17.6405 10.8105 17.5595 10.263 17.4095C10.1565 17.381 10.0425 17.3885 9.942 17.4335L8.751 17.9584C8.439 18.0964 8.088 17.8744 8.0775 17.534L8.0445 16.4661C8.0415 16.3341 7.9815 16.2111 7.884 16.1241C6.717 15.0802 6 13.5683 6 11.8195ZM10.1595 10.7261L8.39699 13.5219C8.22749 13.7904 8.55749 14.0918 8.80949 13.8999L10.7025 12.463C10.83 12.3655 11.007 12.3655 11.136 12.4615L12.5385 13.5129C12.96 13.8279 13.56 13.7184 13.8405 13.2729L15.6045 10.4787C15.7725 10.2102 15.4425 9.90721 15.1905 10.0992L13.2975 11.5361C13.17 11.6336 12.993 11.6336 12.864 11.5376L11.4615 10.4862C11.04 10.1712 10.44 10.2807 10.1595 10.7261Z" fill="white"/>
</g>
</svg>
