<svg width="11" height="11" viewBox="0 0 11 11" fill="none" xmlns="http://www.w3.org/2000/svg">
<g id="Untitled-1 2" clip-path="url(#clip0_6964_17769)">
<g id="Group">
<path id="Vector" d="M6.09963 1.5446C8.71744 1.90037 10.3721 4.14747 10.272 6.43104C10.1547 9.10376 7.97318 10.9631 5.59227 10.99C2.96208 11.0196 0.988229 9.01987 0.777649 6.6935C0.543842 4.11306 2.4038 1.87384 4.93627 1.5446C4.90754 1.5446 4.87881 1.5446 4.85008 1.5446C4.40002 1.5446 3.94995 1.54632 3.49989 1.54392C3.14152 1.54204 2.8635 1.30851 2.80346 0.96558C2.7324 0.559647 3.05275 0.174943 3.46892 0.173403C4.14832 0.170834 4.82771 0.172375 5.50728 0.172375C6.18961 0.172375 6.87193 0.170663 7.55425 0.173574C7.82763 0.174772 8.0358 0.302493 8.15984 0.542012C8.28217 0.778108 8.26806 1.02191 8.11821 1.2414C7.98316 1.43897 7.78445 1.54289 7.54032 1.54392C7.08457 1.5458 6.62866 1.5446 6.17292 1.5446C6.14832 1.5446 6.12406 1.5446 6.09963 1.5446ZM2.13713 6.25333C2.1158 8.07754 3.62651 9.64067 5.55305 9.62235C7.40337 9.60471 8.87933 8.10682 8.89963 6.29082C8.92045 4.42979 7.38496 2.87026 5.4746 2.89303C3.63236 2.91495 2.1189 4.42363 2.13713 6.25333Z" fill="#999999"/>
<path id="Vector_2" d="M6.20124 5.58949C6.20124 5.80915 6.20176 6.02881 6.20107 6.24847C6.19987 6.62358 5.916 6.92097 5.54318 6.93877C5.18516 6.95572 4.86258 6.68316 4.8366 6.319C4.8089 5.93242 4.81853 5.54412 4.828 5.15667C4.83058 5.04864 4.81853 4.94147 4.8323 4.83241C4.87944 4.46191 5.18516 4.20733 5.56916 4.2277C5.9203 4.24619 6.19866 4.54375 6.2009 4.90466C6.20245 5.13305 6.20124 5.36127 6.20124 5.58949Z" fill="#999999"/>
</g>
</g>
<defs>
<clipPath id="clip0_6964_17769">
<rect width="11" height="11" fill="white"/>
</clipPath>
</defs>
</svg>
