<svg width="24" height="24" viewBox="0 0 24 24" fill="none" xmlns="http://www.w3.org/2000/svg">
<g id="fi:settings" clip-path="url(#clip0_6897_16921)">
<path id="Vector" d="M12 15C13.6569 15 15 13.6569 15 12C15 10.3431 13.6569 9 12 9C10.3431 9 9 10.3431 9 12C9 13.6569 10.3431 15 12 15Z" stroke="#333333" stroke-width="2" stroke-linecap="round" stroke-linejoin="round"/>
<path id="Vector_2" d="M19.3397 14.9761C19.2077 15.2752 19.1683 15.607 19.2267 15.9287C19.285 16.2505 19.4384 16.5473 19.667 16.7811L19.7265 16.8406C19.9109 17.0248 20.0572 17.2435 20.157 17.4843C20.2569 17.7251 20.3082 17.9832 20.3082 18.2439C20.3082 18.5045 20.2569 18.7626 20.157 19.0034C20.0572 19.2442 19.9109 19.463 19.7265 19.6472C19.5423 19.8316 19.3235 19.9779 19.0828 20.0777C18.842 20.1775 18.5839 20.2289 18.3232 20.2289C18.0625 20.2289 17.8044 20.1775 17.5637 20.0777C17.3229 19.9779 17.1041 19.8316 16.9199 19.6472L16.8604 19.5877C16.6267 19.359 16.3298 19.2057 16.0081 19.1473C15.6864 19.089 15.3546 19.1284 15.0554 19.2604C14.7621 19.3861 14.5119 19.5948 14.3357 19.8609C14.1595 20.127 14.065 20.4388 14.0637 20.7579V20.9265C14.0637 21.4526 13.8547 21.9571 13.4828 22.329C13.1108 22.701 12.6063 22.91 12.0802 22.91C11.5542 22.91 11.0497 22.701 10.6777 22.329C10.3057 21.9571 10.0968 21.4526 10.0968 20.9265V20.8373C10.0891 20.509 9.98282 20.1906 9.79181 19.9236C9.60079 19.6565 9.33385 19.4531 9.02568 19.3397C8.72656 19.2077 8.39475 19.1683 8.07303 19.2267C7.75132 19.285 7.45445 19.4384 7.22072 19.667L7.16122 19.7265C6.97701 19.9109 6.75825 20.0572 6.51746 20.157C6.27667 20.2569 6.01857 20.3082 5.75791 20.3082C5.49725 20.3082 5.23915 20.2569 4.99836 20.157C4.75757 20.0572 4.53882 19.9109 4.35461 19.7265C4.17019 19.5423 4.02389 19.3235 3.92408 19.0828C3.82426 18.842 3.77288 18.5839 3.77288 18.3232C3.77288 18.0625 3.82426 17.8044 3.92408 17.5637C4.02389 17.3229 4.17019 17.1041 4.35461 16.9199L4.41411 16.8604C4.64274 16.6267 4.79611 16.3298 4.85445 16.0081C4.91278 15.6864 4.8734 15.3546 4.74138 15.0554C4.61567 14.7621 4.40693 14.5119 4.14085 14.3357C3.87478 14.1595 3.56299 14.065 3.24386 14.0637H3.07527C2.54922 14.0637 2.04472 13.8547 1.67274 13.4828C1.30077 13.1108 1.0918 12.6063 1.0918 12.0802C1.0918 11.5542 1.30077 11.0497 1.67274 10.6777C2.04472 10.3057 2.54922 10.0968 3.07527 10.0968H3.16452C3.49278 10.0891 3.81114 9.98282 4.07821 9.79181C4.34528 9.60079 4.5487 9.33385 4.66204 9.02568C4.79406 8.72656 4.83344 8.39475 4.77511 8.07303C4.71677 7.75132 4.5634 7.45445 4.33477 7.22072L4.27527 7.16122C4.09085 6.97701 3.94455 6.75825 3.84474 6.51746C3.74492 6.27667 3.69354 6.01857 3.69354 5.75791C3.69354 5.49725 3.74492 5.23915 3.84474 4.99836C3.94455 4.75757 4.09085 4.53882 4.27527 4.35461C4.45948 4.17019 4.67823 4.02389 4.91902 3.92408C5.15981 3.82426 5.41791 3.77288 5.67857 3.77288C5.93923 3.77288 6.19734 3.82426 6.43812 3.92408C6.67891 4.02389 6.89767 4.17019 7.08188 4.35461L7.14138 4.41411C7.37511 4.64274 7.67198 4.79611 7.99369 4.85445C8.31541 4.91278 8.64722 4.8734 8.94634 4.74138H9.02568C9.31901 4.61567 9.56917 4.40693 9.74538 4.14085C9.92158 3.87478 10.0161 3.56299 10.0174 3.24386V3.07527C10.0174 2.54922 10.2264 2.04472 10.5984 1.67274C10.9703 1.30077 11.4748 1.0918 12.0009 1.0918C12.5269 1.0918 13.0314 1.30077 13.4034 1.67274C13.7754 2.04472 13.9844 2.54922 13.9844 3.07527V3.16452C13.9856 3.48365 14.0802 3.79544 14.2564 4.06151C14.4326 4.32759 14.6828 4.53633 14.9761 4.66204C15.2752 4.79406 15.607 4.83344 15.9287 4.77511C16.2505 4.71677 16.5473 4.5634 16.7811 4.33477L16.8406 4.27527C17.0248 4.09085 17.2435 3.94455 17.4843 3.84474C17.7251 3.74492 17.9832 3.69354 18.2439 3.69354C18.5045 3.69354 18.7626 3.74492 19.0034 3.84474C19.2442 3.94455 19.463 4.09085 19.6472 4.27527C19.8316 4.45948 19.9779 4.67823 20.0777 4.91902C20.1775 5.15981 20.2289 5.41791 20.2289 5.67857C20.2289 5.93923 20.1775 6.19734 20.0777 6.43812C19.9779 6.67891 19.8316 6.89767 19.6472 7.08188L19.5877 7.14138C19.359 7.37511 19.2057 7.67198 19.1473 7.99369C19.089 8.31541 19.1284 8.64722 19.2604 8.94634V9.02568C19.3861 9.31901 19.5948 9.56917 19.8609 9.74538C20.127 9.92158 20.4388 10.0161 20.7579 10.0174H20.9265C21.4526 10.0174 21.9571 10.2264 22.329 10.5984C22.701 10.9703 22.91 11.4748 22.91 12.0009C22.91 12.5269 22.701 13.0314 22.329 13.4034C21.9571 13.7754 21.4526 13.9844 20.9265 13.9844H20.8373C20.5181 13.9856 20.2063 14.0802 19.9403 14.2564C19.6742 14.4326 19.4654 14.6828 19.3397 14.9761V14.9761Z" stroke="#333333" stroke-width="2" stroke-linecap="round" stroke-linejoin="round"/>
</g>
<defs>
<clipPath id="clip0_6897_16921">
<rect width="24" height="24" fill="white"/>
</clipPath>
</defs>
</svg>
