<svg width="40" height="40" viewBox="0 0 40 40" fill="none" xmlns="http://www.w3.org/2000/svg">
<g id="Frame 1160">
<g id="Group 874">
<path id="Vector" d="M28.8889 15.6184L22.2222 9.83932C21.6111 9.29882 20.82 9 20 9C19.1801 9 18.389 9.29882 17.7778 9.83932L11.1112 15.6184C10.7583 15.9305 10.4767 16.3134 10.2851 16.7415C10.0935 17.1697 9.99634 17.6333 10.0001 18.1014V27.7039C10.0001 28.5781 10.3513 29.4165 10.9764 30.0346C11.6015 30.6527 12.4494 31 13.3334 31H26.6667C27.5507 31 28.3985 30.6527 29.0237 30.0346C29.6488 29.4165 30 28.5781 30 27.7039V18.0904C30.0021 17.6241 29.9042 17.1627 29.7127 16.7365C29.5212 16.3104 29.2404 15.9293 28.8889 15.6184ZM22.2222 28.8026H17.7778V23.3092C17.7778 23.0178 17.8949 22.7384 18.1033 22.5323C18.3116 22.3263 18.5942 22.2105 18.8889 22.2105H21.1111C21.4058 22.2105 21.6884 22.3263 21.8968 22.5323C22.1052 22.7384 22.2222 23.0178 22.2222 23.3092V28.8026ZM27.7778 27.7039C27.7778 27.9953 27.6607 28.2748 27.4523 28.4808C27.2439 28.6869 26.9613 28.8026 26.6667 28.8026H24.4444V23.3092C24.4444 22.435 24.0933 21.5967 23.4681 20.9785C22.843 20.3604 21.9952 20.0131 21.1111 20.0131H18.8889C18.0049 20.0131 17.157 20.3604 16.5319 20.9785C15.9068 21.5967 15.5556 22.435 15.5556 23.3092V28.8026H13.3334C13.0387 28.8026 12.7561 28.6869 12.5477 28.4808C12.3394 28.2748 12.2223 27.9953 12.2223 27.7039V18.0904C12.2225 17.9345 12.2563 17.7803 12.3214 17.6382C12.3866 17.4961 12.4816 17.3694 12.6001 17.2664L19.2667 11.4983C19.4695 11.3222 19.7301 11.2251 20 11.2251C20.2699 11.2251 20.5306 11.3222 20.7334 11.4983L27.4 17.2664C27.5185 17.3694 27.6135 17.4961 27.6786 17.6382C27.7438 17.7803 27.7776 17.9345 27.7778 18.0904V27.7039Z" fill="#333333"/>
</g>
</g>
</svg>
