<svg width="40" height="40" viewBox="0 0 40 40" fill="none" xmlns="http://www.w3.org/2000/svg">
<g id="Frame 427319650">
<g id="Group">
<path id="Vector" d="M20.4762 22.733C20.7035 22.733 20.9308 22.6607 21.1271 22.5367C21.3234 22.4127 21.4681 22.2267 21.5507 22.0201C21.6437 21.8031 21.6644 21.5758 21.6127 21.3485C21.5714 21.1211 21.4577 20.9145 21.2924 20.7492C21.1271 20.5839 20.9205 20.4805 20.6931 20.4289C20.4658 20.3875 20.2385 20.4082 20.0215 20.4909C19.8046 20.5839 19.6289 20.7285 19.5049 20.9145C19.3809 21.1108 19.3086 21.3278 19.3086 21.5654C19.3086 21.8754 19.4326 22.175 19.6496 22.392C19.8665 22.609 20.1559 22.733 20.4762 22.733Z" fill="#333333"/>
<path id="Vector_2" d="M25.6531 26.8658C25.8804 26.8658 26.1077 26.7935 26.2937 26.6695C26.49 26.5455 26.6347 26.3595 26.7173 26.1529C26.8103 25.9359 26.831 25.7086 26.7793 25.4813C26.738 25.254 26.6243 25.0473 26.459 24.882C26.2937 24.7167 26.087 24.6133 25.8597 24.5617C25.6324 24.5204 25.4051 24.541 25.1881 24.6237C24.9711 24.7167 24.7955 24.8613 24.6612 25.0576C24.5372 25.254 24.4648 25.4709 24.4648 25.6982C24.4648 26.0082 24.5888 26.3079 24.8058 26.5248C25.0228 26.7418 25.3224 26.8658 25.6324 26.8658H25.6531Z" fill="#333333"/>
<path id="Vector_3" d="M25.6531 22.733C25.8804 22.733 26.1077 22.6607 26.2937 22.5367C26.49 22.4127 26.6347 22.2267 26.7173 22.0201C26.8103 21.8031 26.831 21.5758 26.7793 21.3485C26.738 21.1211 26.6243 20.9145 26.459 20.7492C26.2937 20.5839 26.087 20.4805 25.8597 20.4289C25.6324 20.3875 25.4051 20.4082 25.1881 20.4909C24.9711 20.5839 24.7955 20.7285 24.6612 20.9145C24.5372 21.1108 24.4648 21.3278 24.4648 21.5551C24.4648 21.8651 24.5888 22.1647 24.8058 22.3817C25.0228 22.5987 25.3224 22.7227 25.6324 22.7227L25.6531 22.733Z" fill="#333333"/>
<path id="Vector_4" d="M15.3101 22.733C15.5375 22.733 15.7648 22.6607 15.9611 22.5367C16.1574 22.4127 16.3021 22.2267 16.3847 22.0201C16.4777 21.8031 16.4984 21.5758 16.4467 21.3485C16.4054 21.1211 16.2917 20.9145 16.1264 20.7492C15.9611 20.5839 15.7544 20.4805 15.5271 20.4289C15.2998 20.3875 15.0725 20.4082 14.8555 20.4909C14.6385 20.5839 14.4629 20.7285 14.3389 20.9145C14.2149 21.1108 14.1426 21.3278 14.1426 21.5654C14.1426 21.8754 14.2666 22.175 14.4835 22.392C14.7005 22.609 14.9898 22.733 15.3101 22.733Z" fill="#333333"/>
<path id="Vector_5" d="M15.3101 26.8658C15.5375 26.8658 15.7648 26.7935 15.9611 26.6695C16.1574 26.5455 16.3021 26.3595 16.3847 26.1529C16.4777 25.9359 16.4984 25.7086 16.4467 25.4813C16.4054 25.254 16.2917 25.0473 16.1264 24.882C15.9611 24.7167 15.7544 24.6133 15.5271 24.5617C15.2998 24.5204 15.0725 24.541 14.8555 24.6237C14.6385 24.7167 14.4629 24.8613 14.3389 25.0576C14.2149 25.2436 14.1426 25.4709 14.1426 25.6982C14.1426 26.0082 14.2666 26.3079 14.4835 26.5248C14.7005 26.7418 14.9898 26.8658 15.3101 26.8658Z" fill="#333333"/>
<path id="Vector_6" d="M30.0036 11.0274C29.4043 10.4281 28.5674 10.0768 27.7201 10.0768H26.8109V9.16757C26.8109 8.85759 26.6869 8.55795 26.4699 8.34097C26.2529 8.12399 25.9533 8 25.6433 8C25.3333 8 25.044 8.12399 24.8167 8.34097C24.5997 8.55795 24.4757 8.85759 24.4757 9.16757V10.0768H16.4784V9.16757C16.4784 8.85759 16.3544 8.56828 16.1375 8.34097C15.9205 8.11366 15.6208 8 15.3109 8C15.0009 8 14.7013 8.12399 14.4843 8.34097C14.2673 8.55795 14.1433 8.85759 14.1433 9.16757V10.0768H13.2341C12.3765 10.0768 11.5602 10.4178 10.9506 11.0274C10.3513 11.6267 10 12.4636 10 13.3109V27.7763C10 28.6235 10.341 29.4605 10.9506 30.0597C11.5602 30.6694 12.3661 31 13.2341 31H27.6995C28.5467 31 29.3836 30.659 29.9829 30.0597C30.5822 29.4605 30.9335 28.6235 30.9335 27.7763V13.3109C30.9335 12.4636 30.5925 11.6267 29.9829 11.0274H30.0036ZM12.3455 18.6011H28.619V27.7659C28.619 28.0036 28.5261 28.2412 28.3504 28.4066C28.1851 28.5719 27.9474 28.6752 27.7098 28.6752H13.2444C13.0067 28.6752 12.7794 28.5822 12.6038 28.4066C12.4385 28.2412 12.3351 28.0036 12.3351 27.7659V18.6011H12.3455ZM14.4946 14.1271C14.7116 14.3441 15.0112 14.4681 15.3212 14.4681C15.6312 14.4681 15.9205 14.3441 16.1478 14.1271C16.3751 13.9102 16.4888 13.6208 16.4888 13.3005V12.3913H24.4964V13.3005C24.4964 13.6105 24.6204 13.9102 24.8374 14.1271C25.0544 14.3441 25.354 14.4681 25.664 14.4681C25.9739 14.4681 26.2736 14.3441 26.4906 14.1271C26.7075 13.9102 26.8315 13.6105 26.8315 13.3005V12.3913H27.7408C27.9784 12.3913 28.2161 12.4843 28.3814 12.6599C28.5467 12.8252 28.65 13.0629 28.65 13.3005V16.2763H12.3455V13.3005C12.3455 13.0629 12.4385 12.8252 12.6141 12.6599C12.7898 12.4946 13.0171 12.3913 13.2547 12.3913H14.164V13.3005C14.164 13.6105 14.288 13.9102 14.5049 14.1271H14.4946Z" fill="#333333"/>
<path id="Vector_7" d="M20.4762 26.8658C20.7035 26.8658 20.9308 26.7935 21.1271 26.6695C21.3234 26.5455 21.4681 26.3595 21.5507 26.1529C21.6437 25.9359 21.6644 25.7086 21.6127 25.4813C21.5714 25.254 21.4577 25.0473 21.2924 24.882C21.1271 24.7167 20.9205 24.6133 20.6931 24.5617C20.4658 24.5204 20.2385 24.541 20.0215 24.6237C19.8046 24.7167 19.6289 24.8613 19.5049 25.0576C19.3809 25.2436 19.3086 25.4709 19.3086 25.6982C19.3086 26.0082 19.4326 26.3079 19.6496 26.5248C19.8665 26.7418 20.1559 26.8658 20.4762 26.8658Z" fill="#333333"/>
</g>
</g>
</svg>
