<svg width="20" height="20" viewBox="0 0 20 20" fill="none" xmlns="http://www.w3.org/2000/svg">
<g id="Untitled-1 1" clip-path="url(#clip0_6897_16946)">
<path id="Vector" d="M9.99672 0.00378397C11.275 0.00378397 12.5534 -0.00663171 13.8317 0.00709805C15.3249 0.023195 16.6492 0.520781 17.7869 1.48802C18.9426 2.46993 19.6518 3.71697 19.9051 5.21304C19.9642 5.56443 19.9942 5.92008 19.9951 6.27639C20.0026 8.75722 19.9974 11.238 19.9989 13.7189C20.0022 15.0802 19.5617 16.4056 18.744 17.494C17.9262 18.5825 16.7759 19.3747 15.4675 19.7505C14.9184 19.9084 14.3499 19.9881 13.7787 19.9872C11.2561 19.9872 8.73308 20.0189 6.211 19.9787C3.76563 19.9389 1.93527 18.7998 0.736015 16.6727C0.231316 15.7788 0.00405935 14.7988 0.0035859 13.7705C0.0035859 11.2556 -0.00588312 8.74112 0.00595316 6.22621C0.0140018 4.48631 0.652688 2.99829 1.89313 1.77824C2.88122 0.804844 4.07811 0.236716 5.45396 0.0534952C5.72254 0.0204397 5.99296 0.00462594 6.26356 0.00615117C7.50779 -3.55421e-06 8.75249 0.00378397 9.99672 0.00378397ZM10.0015 17.4912C11.2198 17.4912 12.4377 17.4912 13.6551 17.4912C13.8054 17.4946 13.9559 17.4902 14.1058 17.478C14.9826 17.3833 15.7463 17.0372 16.376 16.4156C17.0923 15.7083 17.4848 14.8442 17.4905 13.8386C17.5057 11.3133 17.4933 8.78752 17.4948 6.26361C17.4948 5.61168 17.3527 4.99479 17.0213 4.43282C16.2969 3.1924 15.2113 2.51964 13.7734 2.50923C11.2514 2.48698 8.72882 2.50213 6.20674 2.50402C6.05262 2.50384 5.89868 2.5146 5.74608 2.53621C4.82569 2.66546 4.0497 3.07736 3.43611 3.77379C2.83719 4.45601 2.50862 5.25518 2.50862 6.16655C2.50199 8.6963 2.50199 11.2257 2.50862 13.7549C2.50924 13.9498 2.52411 14.1444 2.55312 14.3372C2.8121 16.1097 4.40337 17.4879 6.19207 17.4912C7.46092 17.4931 8.73071 17.4931 10.0015 17.4912Z" fill="#333333"/>
<path id="Vector_2" d="M9.8632 8.13315L7.13612 10.855C6.55441 10.2777 5.96827 9.69581 5.37772 9.10938L6.3554 8.14545L5.37109 7.16307L7.13186 5.40234L9.8632 8.13315Z" fill="#333333"/>
<path id="Vector_3" d="M14.8699 8.12161L12.1314 10.8515L10.383 9.10967L11.363 8.14244L10.373 7.16384L12.1433 5.39648L14.8699 8.12161Z" fill="#333333"/>
<path id="Vector_4" d="M10.003 14.8725C9.6684 14.8532 9.33839 14.7851 9.02345 14.6704C8.31328 14.4294 7.6031 14.1969 6.89292 13.9602C6.40337 13.7974 6.14818 13.3447 6.28454 12.8874C6.4332 12.387 6.95636 12.1436 7.45586 12.3392C8.06329 12.5759 8.66931 12.8164 9.28006 13.0441C9.78666 13.2335 10.2961 13.2122 10.7984 13.0176C11.3893 12.7894 11.9787 12.5579 12.5696 12.3302C12.6848 12.2835 12.8088 12.2625 12.933 12.2686C13.0572 12.2747 13.1785 12.3078 13.2886 12.3655C13.3987 12.4232 13.4949 12.5042 13.5706 12.6028C13.6462 12.7014 13.6995 12.8153 13.7267 12.9366C13.829 13.3627 13.5889 13.7921 13.1534 13.9418C12.6364 14.1193 12.117 14.2912 11.5971 14.4625C11.234 14.5809 10.8713 14.6993 10.5035 14.8039C10.3425 14.847 10.1702 14.8503 10.003 14.8725Z" fill="#333333"/>
</g>
<defs>
<clipPath id="clip0_6897_16946">
<rect width="20" height="20" fill="white"/>
</clipPath>
</defs>
</svg>
